<svg width="40" height="40" viewBox="0 0 40 40" fill="none" xmlns="http://www.w3.org/2000/svg">
<g clip-path="url(#clip0_1132_3586)">
<path d="M6.66669 8.3335H10" stroke="#FE4F34" stroke-width="2.5" stroke-linecap="round" stroke-linejoin="round"/>
<path d="M8.33331 6.6665V9.99984" stroke="#FE4F34" stroke-width="2.5" stroke-linecap="round" stroke-linejoin="round"/>
<path d="M19.1666 6.6665L18.3333 9.99984" stroke="#FE4F34" stroke-width="2.5" stroke-linecap="round" stroke-linejoin="round"/>
<path d="M30 8.3335H33.3333" stroke="#FE4F34" stroke-width="2.5" stroke-linecap="round" stroke-linejoin="round"/>
<path d="M31.6667 6.6665V9.99984" stroke="#FE4F34" stroke-width="2.5" stroke-linecap="round" stroke-linejoin="round"/>
<path d="M25 15L23.3333 16.6667" stroke="#FE4F34" stroke-width="2.5" stroke-linecap="round" stroke-linejoin="round"/>
<path d="M30 21.6668L33.3333 20.8335" stroke="#FE4F34" stroke-width="2.5" stroke-linecap="round" stroke-linejoin="round"/>
<path d="M30 31.6665H33.3333" stroke="#FE4F34" stroke-width="2.5" stroke-linecap="round" stroke-linejoin="round"/>
<path d="M31.6667 30V33.3333" stroke="#FE4F34" stroke-width="2.5" stroke-linecap="round" stroke-linejoin="round"/>
<path d="M23.3363 27.5298L12.4729 16.6665L5.15626 32.6332C5.01165 32.9432 4.96592 33.2902 5.0253 33.6271C5.08467 33.9639 5.24627 34.2744 5.48816 34.5163C5.73004 34.7582 6.0405 34.9198 6.37738 34.9791C6.71426 35.0385 7.06126 34.9928 7.37126 34.8482L23.3363 27.5298Z" stroke="#FE4F34" stroke-width="2.5" stroke-linecap="round" stroke-linejoin="round"/>
</g>
<defs>
<clipPath id="clip0_1132_3586">
<rect width="40" height="40" fill="white"/>
</clipPath>
</defs>
</svg>
