<svg width="231" height="230" viewBox="0 0 231 230" fill="none" xmlns="http://www.w3.org/2000/svg">
<g id="faq">
<path id="Vector" d="M51.716 151.065L51.6918 150.792C49.2172 151.09 46.7286 151.256 44.2364 151.291C46.731 151.455 49.2357 151.38 51.716 151.065ZM52.8498 160.745C52.7073 159.897 52.6002 159.045 52.529 158.188C52.5048 157.911 52.499 157.633 52.5118 157.356H52.2645L51.8045 152.066C48.5373 152.48 45.2313 152.485 41.9628 152.081C41.8793 152.068 41.7996 152.037 41.7297 151.99C41.6598 151.942 41.6015 151.88 41.559 151.807C41.5166 151.734 41.4912 151.652 41.4846 151.568C41.4781 151.484 41.4906 151.399 41.5212 151.32C37.5503 151.33 33.5551 151.185 30.4812 151.033C31.0968 151.621 31.5835 152.331 31.9106 153.117C32.2556 154.044 32.2131 155.448 31.1056 155.838C30.8403 155.917 30.5599 155.933 30.2873 155.884C30.0147 155.834 29.7576 155.721 29.537 155.554C29.6279 155.86 29.7107 156.168 29.7808 156.481C29.9614 157.292 30.334 158.518 29.7877 159.26C29.5361 159.536 29.2032 159.724 28.8374 159.799C28.4715 159.873 28.0915 159.829 27.7522 159.673C27.7361 163.026 27.7304 166.314 27.7292 168.404C27.7292 176.495 27.7879 184.604 28.264 192.684C28.4054 195.091 28.5768 197.502 28.8988 199.893C28.9498 201.248 29.2249 202.586 29.713 203.851C30.403 205.201 31.9762 205.557 33.3826 205.727C35.7217 206.011 39.5685 205.469 40.5425 202.912C40.4348 202.892 40.3382 202.834 40.2714 202.747C40.2046 202.66 40.1726 202.552 40.1814 202.443V202.364C40.1608 200.453 40.316 198.523 40.3827 196.614L40.7967 184.841L41.2785 171.136L41.6753 159.866L41.8409 155.139C41.8639 154.492 42.8702 154.491 42.8472 155.139V155.216C42.8667 157.128 42.7114 159.058 42.6447 160.966L42.2307 172.74L41.7489 186.445L41.3521 197.715L41.1866 202.444C41.1861 202.538 41.1577 202.63 41.1049 202.708C41.052 202.786 40.9772 202.847 40.8899 202.882C41.4559 203.425 42.0867 203.896 42.7678 204.285C44.7321 205.294 47.0136 205.492 49.1227 204.838C52.2909 203.947 52.1966 201.746 52.3876 198.973C52.6858 194.648 52.8982 190.317 53.0247 185.978C53.2362 178.956 53.2673 169.369 52.8498 160.745Z" fill="#7D4AB4"/>
<path id="Vector_2" d="M146.313 62.5945C143.231 43.5907 127.568 24.0695 93.4128 28.9535C59.2578 33.8376 60.0283 73.1239 60.0283 73.1239H81.3447C84.9396 54.1201 99.0639 51.5522 99.0639 51.5522C107.574 50.3573 117.393 53.3232 122.908 60.1542C132.05 71.4794 124.978 88.2889 114.031 95.4948C110.212 97.9525 105.971 99.6803 101.521 100.59H101.511C99.8767 100.926 98.4081 101.815 97.3533 103.108C96.2986 104.4 95.7224 106.018 95.722 107.686V151.705H117.294V129.817C117.287 126.533 118.083 123.297 119.612 120.391C121.141 117.485 123.357 114.996 126.067 113.142C143.889 101.011 148.997 79.1464 146.313 62.5945ZM114.781 164.595C112.051 162.817 108.781 162.062 105.549 162.462C105.487 162.472 105.424 162.468 105.365 162.45C105.305 162.432 105.25 162.401 105.204 162.359C105.158 162.317 105.122 162.266 105.098 162.208C105.075 162.15 105.065 162.088 105.069 162.026C98.8511 162.931 93.4105 167.661 93.4105 174.561C93.4112 178.018 94.7529 181.34 97.1532 183.828C99.5535 186.316 102.825 187.776 106.28 187.901C106.278 187.836 106.289 187.772 106.313 187.712C106.336 187.652 106.372 187.597 106.417 187.551C106.462 187.506 106.516 187.469 106.576 187.445C106.636 187.421 106.7 187.409 106.764 187.41C109.665 187.382 112.451 186.267 114.569 184.285C116.41 182.584 117.779 180.434 118.543 178.047C119.307 175.659 119.439 173.114 118.928 170.66C118.344 168.195 116.866 166.034 114.781 164.595Z" fill="#6DD3A8"/>
<path id="Vector_3" d="M197.325 151.11C193.718 151.654 190.077 151.951 186.43 152.001C186.43 152.132 186.38 152.257 186.291 152.352C186.201 152.447 186.078 152.503 185.948 152.51C184.09 152.619 182.228 152.635 180.369 152.557C177.754 152.462 175.148 152.205 172.564 151.789C172.097 151.712 171.632 151.627 171.169 151.534C171.04 152.912 170.945 154.292 170.885 155.674C170.86 156.227 170.839 156.787 170.822 157.353C170.756 159.497 170.744 161.735 170.768 164.009C170.846 171.719 171.33 179.831 171.51 185.986C171.637 190.32 171.849 194.652 172.147 198.981C172.338 201.749 172.243 203.95 175.412 204.846C177.521 205.501 179.802 205.302 181.767 204.293C182.445 203.905 183.075 203.436 183.64 202.896C183.551 202.862 183.474 202.801 183.422 202.721C183.369 202.642 183.343 202.547 183.348 202.452V202.372C183.287 200.498 183.366 198.609 183.375 196.738L183.434 185.188C183.456 180.735 183.478 176.283 183.501 171.832L183.557 160.753L183.58 156.138C183.586 156.009 183.642 155.887 183.736 155.797C183.829 155.708 183.954 155.658 184.083 155.658C184.213 155.658 184.337 155.708 184.431 155.797C184.524 155.887 184.58 156.009 184.586 156.138V156.217C184.647 158.091 184.567 159.98 184.558 161.852L184.5 173.395L184.433 186.751L184.377 197.83L184.354 202.445C184.358 202.553 184.324 202.658 184.257 202.744C184.191 202.829 184.097 202.888 183.992 202.911C184.964 205.472 188.813 206.016 191.153 205.729C192.559 205.559 194.136 205.204 194.823 203.854C195.311 202.588 195.586 201.251 195.637 199.895C195.959 197.505 196.13 195.093 196.271 192.686C196.748 184.606 197.317 176.662 197.313 168.569C197.312 164.549 197.38 155.961 197.325 151.11Z" fill="#59679C"/>
<path id="Vector_4" d="M60.9112 152.015C61.2447 127.02 53.5374 118.333 50.13 115.72L50.1196 115.746C50.3555 116.04 50.5707 116.35 50.7636 116.673C51.4321 117.754 51.9999 118.894 52.4599 120.079C53.2588 122.101 53.899 124.182 54.3746 126.303C55.1091 129.551 55.6377 132.843 55.957 136.158C56.4161 140.841 56.6342 145.545 56.6102 150.251C56.6112 150.335 56.5907 150.419 56.5504 150.493C56.5966 150.557 56.6265 150.631 56.6374 150.709C56.6482 150.787 56.6397 150.866 56.6127 150.94C56.5857 151.014 56.5409 151.08 56.4823 151.132C56.4237 151.185 56.3531 151.222 56.2767 151.241C54.9374 151.568 53.582 151.825 52.2161 152.011L51.8044 152.068L52.2644 157.358H60.9216L60.9112 152.015Z" fill="#FF8684"/>
<path id="Vector_5" d="M55.6154 150.362C55.608 150.325 55.6046 150.286 55.6051 150.247V149.923C55.6275 144.902 55.3641 139.883 54.8162 134.892C54.474 131.78 53.9293 128.693 53.1855 125.652C52.7111 123.701 52.0879 121.789 51.3213 119.932C50.8909 118.894 50.3654 117.898 49.7516 116.956C49.6964 116.874 49.6366 116.794 49.5802 116.715L48.8304 117.935L48.6361 118.25C48.2474 118.881 47.892 119.561 47.4516 120.158C47.2968 120.384 47.0612 120.543 46.7932 120.601C46.5251 120.659 46.2451 120.612 46.0106 120.469C45.4179 120.121 44.8468 119.737 44.3006 119.319L42.6296 118.169C42.3606 117.93 42.0613 117.727 41.7395 117.566C41.5095 117.498 41.2255 117.801 41.0415 117.937C39.9922 118.707 39.0045 119.557 38.0871 120.48C37.718 120.85 37.3465 121.426 36.8566 121.63C36.2931 121.869 35.8021 121.431 35.3616 121.128C34.1714 120.314 33.0519 119.401 32.0151 118.398C31.3033 117.713 30.6328 116.985 30.0072 116.22L29.9325 116.129C29.5957 115.737 29.2823 115.326 28.9941 114.896C22.8991 118.075 12.3271 124.698 11.2369 132.87C9.87417 143.094 18.7384 154.39 20.7992 156.857C20.7365 156.477 20.7107 156.091 20.7221 155.707C20.7894 154.002 21.4099 152.365 22.4897 151.044C23.1092 150.269 23.9388 149.689 24.8794 149.373C25.5832 149.147 26.333 149.103 27.0586 149.245C27.6151 149.357 28.1558 149.537 28.6686 149.781C29.3366 150.097 29.949 150.52 30.4822 151.032C33.5561 151.184 37.5512 151.328 41.5222 151.319C41.5543 151.232 41.6165 151.16 41.6975 151.115C41.7785 151.069 41.8729 151.055 41.9638 151.073C42.7205 151.167 43.4795 151.236 44.2385 151.287C46.7307 151.253 49.2193 151.086 51.6939 150.788L51.7181 151.062C51.848 151.046 51.978 151.026 52.1091 151.009C53.2859 150.846 54.4547 150.631 55.6154 150.362ZM27.3553 130.854C27.4547 130.854 27.5519 130.883 27.6345 130.939C27.7171 130.994 27.7816 131.072 27.8196 131.164C27.8576 131.256 27.8676 131.357 27.8482 131.454C27.8288 131.552 27.7809 131.641 27.7107 131.712C27.6144 131.803 27.4879 131.855 27.3553 131.859L25.7591 131.997C25.6971 132.002 25.6348 131.992 25.5774 131.968L24.9277 132.612C24.6097 136.903 24.5398 141.208 24.7184 145.507C23.0808 141.367 20.936 135.491 21.5915 134.672C22.2816 133.933 23.0204 133.242 23.803 132.602C23.7927 132.525 23.7999 132.447 23.824 132.373C23.8481 132.299 23.8885 132.231 23.9421 132.175L25.0772 131.052L27.0977 129.052C27.1932 128.96 27.3206 128.909 27.4531 128.909C27.5855 128.909 27.7129 128.96 27.8084 129.052C27.8515 129.093 27.8859 129.142 27.9096 129.197C27.9504 129.291 27.9625 129.395 27.9445 129.495C27.9265 129.596 27.8792 129.69 27.8084 129.764L26.6412 130.914L27.3553 130.854Z" fill="#FF8684"/>
<path id="Vector_6" d="M30.572 115.338L30.5801 115.348C30.9634 115.828 31.3648 116.293 31.7841 116.743C31.9532 116.924 32.1291 117.088 32.3062 117.27C32.8628 117.834 33.4378 118.38 34.0462 118.888C34.4847 119.255 34.9359 119.605 35.3997 119.939C35.5918 120.076 35.7861 120.212 35.9816 120.344C36.0966 120.423 36.2174 120.502 36.3358 120.574C36.3899 120.61 36.4508 120.644 36.5003 120.678C36.6854 120.514 36.8548 120.333 37.0063 120.138C37.1956 119.941 37.3873 119.746 37.5813 119.554C37.9539 119.188 38.3372 118.834 38.7313 118.491C39.1775 118.104 39.6375 117.734 40.1113 117.376C40.494 117 40.9534 116.711 41.4579 116.528C41.7063 116.524 41.9531 116.569 42.1836 116.662C42.4142 116.755 42.6237 116.893 42.8 117.068L44.2708 118.076L45.8808 119.177C46.0315 119.281 46.3259 119.577 46.5214 119.599C46.7169 119.621 46.8595 119.222 46.9607 119.057L48.6857 116.252L48.8363 116.009C48.8881 115.923 48.9732 115.813 49.0548 115.696C49.0803 115.632 49.1173 115.574 49.1641 115.523C49.2282 115.425 49.264 115.311 49.2676 115.193C49.2649 115.175 49.261 115.156 49.2561 115.138C49.2561 115.125 49.2561 115.113 49.248 115.1L49.2055 115.074C48.2357 113.73 46.9552 112.642 45.4733 111.901C43.9913 111.16 42.3521 110.788 40.6955 110.819C38.0635 110.807 35.4839 111.554 33.2642 112.968C33.2642 112.932 33.2757 112.893 33.2814 112.853C33.2814 112.853 31.9244 113.414 29.8855 114.441C29.9453 114.518 30.0097 114.592 30.0603 114.66C30.2224 114.892 30.3995 115.115 30.572 115.338Z" fill="#FF8684"/>
<path id="Vector_7" d="M218.227 119.255C216.438 118.037 214.498 117.061 212.455 116.35C212.174 116.273 211.885 116.231 211.593 116.223L205.557 126.201C205.557 126.201 196.156 110.515 184.084 111.379C181.021 111.531 178.099 112.715 175.795 114.74V114.727C175.795 114.727 163.004 119.967 163.431 152.015L163.421 157.355H170.82C170.838 156.789 170.859 156.229 170.883 155.676C170.949 154.237 171.041 152.851 171.167 151.536C170.6 151.421 170.035 151.306 169.475 151.169C169.37 151.138 169.278 151.074 169.211 150.987C169.145 150.9 169.108 150.794 169.106 150.684C169.106 150.652 169.106 150.619 169.099 150.586C168.996 149.302 168.919 148.015 168.869 146.727C168.699 142.872 168.584 139.016 168.524 135.158L168.513 134.583C168.511 134.491 168.535 134.4 168.582 134.321C168.643 134.232 168.729 134.164 168.83 134.127C168.932 134.089 169.042 134.085 169.145 134.114C169.249 134.143 169.341 134.204 169.408 134.288C169.475 134.372 169.514 134.475 169.52 134.583C169.526 135.066 169.535 135.548 169.546 136.03C169.639 140.772 169.7 145.54 170.08 150.27C170.315 150.323 170.55 150.375 170.787 150.423C170.949 150.455 171.112 150.482 171.274 150.513C171.734 150.6 172.194 150.689 172.654 150.766C177.044 151.512 181.503 151.76 185.948 151.505C186.015 151.499 186.081 151.508 186.144 151.531C186.206 151.554 186.262 151.59 186.308 151.638C186.355 151.686 186.39 151.743 186.411 151.806C186.432 151.869 186.438 151.936 186.43 152.002C190.078 151.952 193.718 151.654 197.325 151.111C197.891 151.023 198.459 150.93 199.03 150.829L198.175 133.374C198.145 133.38 198.114 133.384 198.083 133.386H198.076C198.142 134.48 198.211 135.571 198.295 136.665C198.343 137.312 197.337 137.306 197.289 136.665C197.094 134.112 196.949 131.555 196.854 128.995C196.83 128.347 197.836 128.35 197.86 128.995C197.897 130.007 197.949 131.017 198.002 132.028C198.019 131.965 198.032 131.901 198.042 131.837C198.053 131.788 198.071 131.741 198.095 131.698L198.174 131.596C198.221 131.55 198.276 131.512 198.337 131.487C198.398 131.461 198.463 131.448 198.529 131.448C198.595 131.448 198.661 131.461 198.722 131.487C198.783 131.512 198.838 131.55 198.885 131.596C198.932 131.643 198.969 131.698 198.994 131.759C199.02 131.82 199.033 131.886 199.032 131.952C199.018 132.085 198.994 132.216 198.958 132.345C198.921 132.467 198.874 132.586 198.818 132.7C198.721 132.899 198.593 133.081 198.439 133.24C198.395 133.284 198.344 133.318 198.287 133.341C199.109 134.207 204.124 139.333 207.283 138.882C210.733 138.388 218.863 119.665 218.863 119.665C218.863 119.665 218.622 119.503 218.227 119.255ZM171.866 121.246C170.393 124.398 169.625 127.833 169.616 131.312C169.614 131.403 169.588 131.491 169.54 131.568C169.492 131.644 169.424 131.707 169.344 131.749C169.264 131.791 169.174 131.81 169.084 131.805C168.993 131.801 168.906 131.772 168.831 131.722C168.76 131.68 168.703 131.619 168.664 131.547C168.626 131.475 168.607 131.394 168.611 131.312C168.625 127.654 169.439 124.043 170.997 120.732C171.023 120.672 171.062 120.619 171.111 120.576C171.161 120.533 171.219 120.502 171.282 120.485C171.346 120.468 171.412 120.466 171.476 120.479C171.54 120.492 171.601 120.519 171.653 120.559C171.767 120.625 171.853 120.732 171.892 120.858C171.932 120.985 171.922 121.121 171.866 121.241V121.246Z" fill="#F55555"/>
<path id="Vector_8" d="M52.6582 157.355H52.5122C52.4995 157.633 52.5052 157.911 52.5294 158.188C52.5996 159.045 52.7088 159.897 52.8503 160.745C53.1311 162.435 53.5515 164.099 54.1073 165.721C54.1878 166.019 54.3331 166.296 54.5327 166.532C54.6348 166.649 54.77 166.73 54.9202 166.767C55.0703 166.804 55.2281 166.794 55.3722 166.738C55.5439 166.634 55.6811 166.482 55.7667 166.3C56.0671 165.774 56.2832 165.205 56.4073 164.612L57.2122 166.797C57.3203 167.089 57.5572 167.446 57.8482 167.337C57.9628 167.28 58.0553 167.186 58.1115 167.071C59.0607 165.422 59.5954 163.567 59.6698 161.666C59.7394 160.228 59.6944 158.788 59.5352 157.358L52.6582 157.355ZM58.1645 161.207C58.0914 161.585 57.9821 161.956 57.8379 162.313C57.7105 162.697 57.5036 163.05 57.2306 163.348C57.0688 163.499 56.8629 163.594 56.6431 163.619C56.4233 163.644 56.2012 163.599 56.0094 163.488C55.6645 163.283 55.3964 162.97 55.2457 162.598C54.9516 161.829 54.8219 161.006 54.8651 160.183C54.8651 160.05 54.918 159.922 55.0123 159.828C55.1065 159.734 55.2344 159.681 55.3676 159.681C55.5009 159.681 55.6288 159.734 55.723 159.828C55.8173 159.922 55.8702 160.05 55.8702 160.183C55.844 160.799 55.9166 161.415 56.0852 162.008C56.1458 162.236 56.2781 162.437 56.4624 162.583C56.4857 162.598 56.5109 162.609 56.5372 162.617C56.6054 162.548 56.66 162.467 56.6982 162.378C57.2027 161.259 57.439 160.038 57.3882 158.813C57.4146 158.166 58.4232 158.165 58.3944 158.813C58.3794 159.615 58.3025 160.416 58.1645 161.207Z" fill="#FFCEB6"/>
<path id="Vector_9" d="M164.804 157.356C164.645 158.786 164.6 160.226 164.669 161.664C164.743 163.565 165.278 165.42 166.227 167.069C166.283 167.184 166.376 167.278 166.491 167.335C166.783 167.444 167.02 167.087 167.128 166.795L167.933 164.61C168.057 165.203 168.273 165.772 168.573 166.298C168.659 166.48 168.796 166.632 168.968 166.736C169.112 166.792 169.27 166.802 169.42 166.765C169.57 166.728 169.705 166.646 169.807 166.53C170.007 166.294 170.152 166.017 170.233 165.718C170.427 165.154 170.604 164.584 170.764 164.008C170.74 161.735 170.753 159.497 170.818 157.353L164.804 157.356ZM169.098 162.596C168.947 162.968 168.679 163.281 168.334 163.486C168.142 163.597 167.92 163.642 167.7 163.617C167.481 163.592 167.275 163.497 167.113 163.346C166.84 163.048 166.633 162.695 166.506 162.311C166.361 161.954 166.252 161.583 166.179 161.205C166.041 160.413 165.965 159.612 165.949 158.809C165.955 158.68 166.011 158.558 166.105 158.469C166.198 158.379 166.323 158.33 166.452 158.33C166.582 158.33 166.706 158.379 166.8 158.469C166.893 158.558 166.949 158.68 166.955 158.809C166.905 160.035 167.141 161.256 167.645 162.374C167.684 162.465 167.74 162.546 167.811 162.615C167.836 162.607 167.859 162.595 167.881 162.58C168.065 162.434 168.197 162.232 168.258 162.005C168.427 161.412 168.499 160.796 168.473 160.18C168.473 160.047 168.526 159.919 168.62 159.825C168.715 159.73 168.842 159.678 168.976 159.678C169.109 159.678 169.237 159.73 169.331 159.825C169.425 159.919 169.478 160.047 169.478 160.18C169.522 161.003 169.392 161.826 169.098 162.596ZM221.212 113.063C220.999 113.128 220.809 113.254 220.666 113.425L219.295 114.77C219.879 113.897 220.309 112.93 220.568 111.912C220.608 111.814 220.625 111.707 220.618 111.601C220.611 111.494 220.58 111.391 220.528 111.298C220.336 111.053 219.953 111.149 219.669 111.29C218.737 111.766 217.963 112.501 217.439 113.406C217.963 112.363 218.194 111.197 218.108 110.033C218.09 109.789 218.024 109.502 217.796 109.416C217.567 109.329 217.329 109.5 217.153 109.668C216.14 110.631 215.403 111.847 215.019 113.191C215.098 112.216 214.843 111.243 214.296 110.431C214.136 110.227 213.914 110.081 213.664 110.014C213.466 109.987 213.265 110.015 213.083 110.094C212.9 110.174 212.743 110.303 212.629 110.466C212.405 110.797 212.262 111.176 212.211 111.573C212.035 112.549 212.035 113.548 212.211 114.524C212.358 115.119 212.442 115.729 212.46 116.342C214.503 117.053 216.443 118.03 218.231 119.247C219.492 117.975 220.617 116.576 221.591 115.073C221.863 114.725 222.024 114.303 222.051 113.863C222.029 113.427 221.645 112.977 221.212 113.063ZM193.49 99.6671C193.165 99.656 192.842 99.7098 192.538 99.8253C192.234 99.9408 191.956 100.116 191.72 100.34C191.572 99.5119 191.284 98.7154 190.867 97.9847C190.455 98.1724 190.002 98.2515 189.55 98.2147C188.805 98.1597 188.073 97.991 187.379 97.7144C186.773 97.4948 186.144 97.2958 185.867 96.6599C185.82 96.5518 185.723 96.0124 185.624 95.9768C185.525 95.9411 185.221 96.3597 185.164 96.4368C184.893 96.952 184.517 97.4048 184.06 97.7662C183.478 98.0549 182.82 98.1569 182.178 98.0583C181.388 98.014 180.6 97.9634 179.811 97.9065C178.996 97.8476 178.182 97.7709 177.371 97.6765C177.122 97.6466 176.876 97.6109 176.629 97.5776C176.33 98.0599 176.086 98.575 175.905 99.1128C175.604 98.9659 175.277 98.8829 174.943 98.869C174.578 98.8457 174.213 98.9098 173.878 99.0558C173.543 99.2019 173.247 99.4257 173.016 99.7088C172.784 99.9919 172.624 100.326 172.547 100.684C172.471 101.041 172.481 101.412 172.576 101.765C172.733 102.232 173.028 102.641 173.424 102.935C173.819 103.23 174.295 103.397 174.788 103.413C175.127 103.423 175.465 103.362 175.78 103.236C175.808 103.344 175.834 103.451 175.868 103.559C176.387 105.197 177.435 106.618 178.847 107.598C179.098 107.776 179.358 107.939 179.627 108.089C179.567 109.009 179.544 109.922 179.567 110.834C179.566 111.786 179.678 112.736 179.9 113.663C179.97 114.053 180.138 114.42 180.386 114.73C180.635 115.04 180.957 115.282 181.323 115.436C182.374 115.803 183.489 115.955 184.6 115.882C185.62 115.899 186.637 115.752 187.61 115.446C187.928 115.365 188.206 115.174 188.396 114.907C188.524 114.656 188.602 114.383 188.626 114.102C188.725 113.241 188.752 112.373 188.706 111.508C188.667 110.214 188.587 108.923 188.468 107.634C189.978 106.627 191.082 105.116 191.582 103.371C191.803 103.622 192.071 103.826 192.372 103.971C192.673 104.116 193 104.198 193.334 104.213C193.952 104.245 194.557 104.034 195.022 103.626C195.486 103.218 195.773 102.645 195.821 102.028V101.859C195.764 101.273 195.496 100.728 195.068 100.325C194.639 99.9221 194.078 99.6883 193.49 99.6671ZM187.705 113.039C187.705 113.226 187.69 113.411 187.675 113.596C187.66 113.781 187.652 113.879 187.633 113.985C187.613 114.105 187.586 114.224 187.553 114.341V114.363C187.492 114.394 187.433 114.429 187.376 114.468C187.206 114.531 187.031 114.582 186.854 114.621C186.4 114.725 185.938 114.795 185.474 114.83C184.408 114.949 183.331 114.9 182.28 114.685C182.066 114.639 181.857 114.574 181.655 114.492C181.575 114.457 181.5 114.416 181.425 114.377C181.391 114.359 181.359 114.339 181.328 114.317L181.305 114.297C181.134 114.112 181.01 113.888 180.944 113.645C180.711 112.838 180.591 112.002 180.588 111.161C180.554 110.293 180.565 109.419 180.61 108.549C181.492 108.907 182.43 109.109 183.381 109.147C184.814 109.187 186.234 108.863 187.507 108.204C187.566 108.92 187.616 109.638 187.653 110.355C187.699 111.246 187.732 112.145 187.705 113.045V113.039Z" fill="#FEE992"/>
<path id="Vector_10" d="M47.3118 97.5049C47.2278 97.3458 47.1376 97.1901 47.0415 97.038C46.7394 96.5417 46.3552 96.1004 45.9053 95.7327C43.6881 93.9939 33.8556 93.5868 32.6677 100.698C32.6493 100.813 32.6263 100.918 32.6125 101.033C32.4684 100.942 32.3194 100.859 32.1663 100.784C31.9534 100.677 31.7337 100.585 31.5085 100.509C31.0701 100.299 30.5756 100.237 30.0988 100.331C29.6221 100.426 29.1887 100.672 28.8635 101.033C27.5835 102.667 28.5104 106.068 33.1484 105.449C33.1484 105.449 33.176 105.554 33.2415 105.727C33.2588 107.107 33.3117 108.498 33.4094 109.879C33.4653 111.003 33.6041 112.121 33.8246 113.224C33.8525 113.575 33.967 113.914 34.1579 114.21C34.3487 114.507 34.61 114.751 34.9182 114.922C35.9072 115.294 36.9529 115.493 38.0094 115.509C39.3167 115.605 40.6295 115.597 41.9355 115.486C42.9724 115.456 43.9954 115.24 44.9566 114.85C45.329 114.612 45.6413 114.291 45.8689 113.912C46.0966 113.533 46.2334 113.106 46.2687 112.665C46.5713 111.066 46.6871 109.436 46.6137 107.81C47.1909 107.325 47.6463 106.711 47.9431 106.018C48.8634 103.376 48.719 100.479 47.5406 97.9419C47.4636 97.7947 47.3888 97.6475 47.3118 97.5049ZM45.4522 111.381C45.4013 111.899 45.3063 112.412 45.1682 112.914C45.0941 113.241 44.9449 113.547 44.7323 113.807C44.7199 113.817 44.7087 113.829 44.699 113.842L44.6495 113.871C44.5826 113.912 44.5135 113.951 44.4425 113.986C44.2872 114.049 44.1282 114.104 43.9664 114.149C43.4986 114.277 43.0214 114.368 42.5393 114.421C41.3393 114.558 40.1306 114.603 38.9237 114.556C37.8705 114.552 36.8215 114.424 35.798 114.175C35.713 114.152 35.6286 114.127 35.545 114.099C35.5139 114.088 35.369 114.03 35.3644 114.032C35.3019 114.002 35.2406 113.969 35.1804 113.935C35.1667 113.926 35.1521 113.918 35.1367 113.912C35.129 113.9 35.1197 113.889 35.1091 113.88L35.0873 113.85L35.0689 113.815C35.0412 113.764 35.0151 113.712 34.9907 113.659C34.9907 113.644 34.9447 113.531 34.9378 113.511C34.9061 113.415 34.8777 113.318 34.8527 113.221C34.6307 112.266 34.4937 111.294 34.4433 110.316C34.3666 109.371 34.3126 108.423 34.2811 107.473C35.1787 108.525 36.4165 109.229 37.7794 109.464C40.4202 110.013 43.1685 109.678 45.5994 108.509C45.6025 109.468 45.5533 110.427 45.4522 111.381ZM28.7416 150.944C28.4531 150.77 28.1499 150.621 27.8354 150.5C27.3769 150.319 26.8947 150.205 26.4036 150.162C26.327 150.157 26.2503 150.153 26.1736 150.152C25.7463 150.145 25.3218 150.224 24.9247 150.382C23.0318 151.143 21.8565 153.602 21.7346 155.507C21.7099 155.903 21.7288 156.301 21.791 156.693C21.8622 157.267 22.0524 157.82 22.3494 158.317C22.6464 158.814 23.0438 159.243 23.516 159.577C23.8895 159.827 24.3116 159.995 24.7545 160.069C24.9351 160.12 25.1237 160.134 25.3097 160.11C25.4956 160.087 25.6751 160.028 25.8378 159.935C26.1345 159.659 25.9459 158.913 25.8758 158.563C25.7821 158.085 25.6275 157.621 25.4158 157.183C25.1363 156.608 25.977 156.1 26.284 156.675C26.5786 157.363 27.0266 157.976 27.5939 158.465C27.6508 158.507 27.7104 158.546 27.7721 158.58C28.2425 158.834 29.0463 159.04 29.0659 158.334C29.0388 157.594 28.9087 156.862 28.6795 156.158C28.4674 155.368 28.1857 154.599 27.8377 153.858C27.8235 153.827 27.8127 153.794 27.8055 153.761C27.786 153.676 27.786 153.588 27.8055 153.503C27.8136 153.423 27.8422 153.347 27.8886 153.282C27.935 153.217 27.9975 153.165 28.0701 153.132C28.1426 153.098 28.2227 153.084 28.3023 153.091C28.3819 153.098 28.4584 153.125 28.5242 153.171C28.9115 153.458 29.2564 153.798 29.5489 154.181C29.7788 154.537 30.129 154.798 30.5356 154.917C31.3406 155.017 31.1106 153.812 30.9473 153.39C30.4905 152.361 29.718 151.505 28.7416 150.944Z" fill="#FFCEB6"/>
<path id="Vector_11" d="M35.1508 207.133C34.0044 206.953 32.8305 207.076 31.747 207.492C30.6636 207.908 29.7085 208.602 28.9776 209.503C28.6167 209.887 28.295 210.305 28.0174 210.752C27.9139 210.928 27.8127 211.105 27.7069 211.281C27.6609 211.358 27.6057 211.434 27.5631 211.511L27.5528 211.529C27.4536 211.604 27.386 211.714 27.3633 211.837C27.3405 211.959 27.3642 212.086 27.4297 212.192C27.4691 212.27 27.5288 212.336 27.6024 212.383C27.676 212.43 27.7609 212.457 27.8483 212.46C30.5783 212.653 33.3186 212.648 36.0478 212.445C37.0915 212.378 38.1308 212.254 39.1609 212.073C39.2347 212.052 39.3028 212.014 39.36 211.963C39.4171 211.911 39.4619 211.848 39.4908 211.777C39.5197 211.705 39.5321 211.629 39.5269 211.552C39.5218 211.475 39.4992 211.401 39.461 211.334C38.3674 209.547 37.4002 207.6 35.1508 207.133ZM54.1051 208.962C50.7087 207.568 47.1032 206.752 43.4377 206.547C43.3634 206.534 43.2872 206.543 43.2176 206.572C43.1481 206.601 43.088 206.649 43.0444 206.71L43.0295 206.73L43.018 206.749C42.9996 206.783 42.9853 206.82 42.9754 206.857C42.9664 206.876 42.9587 206.896 42.9524 206.916C42.7727 207.81 42.7687 208.731 42.9409 209.627C43.0291 210.207 43.2907 210.748 43.6916 211.177C44.0924 211.606 44.6136 211.905 45.1869 212.032C46.323 212.258 47.4784 212.374 48.6369 212.377C50.0065 212.42 51.3785 212.403 52.747 212.337C53.7631 212.317 54.7762 212.218 55.7772 212.043C56.2878 211.938 56.7467 211.657 56.5742 211.07C56.2752 210.042 54.9757 209.375 54.1051 208.962ZM42.8558 155.143C42.8788 154.496 41.8726 154.497 41.8496 155.143L41.684 159.871L41.2872 171.141C41.1277 175.708 40.9671 180.277 40.8054 184.845L40.3914 196.619C40.3247 198.529 40.1694 200.459 40.1901 202.369V202.447C40.1812 202.556 40.2133 202.665 40.2801 202.751C40.3468 202.838 40.4435 202.897 40.5512 202.916C40.6666 202.942 40.7872 202.931 40.8962 202.885C40.9835 202.85 41.0584 202.789 41.1112 202.711C41.1641 202.633 41.1925 202.541 41.1929 202.447L41.3585 197.718L41.7553 186.448L42.2371 172.744L42.6511 160.969C42.7178 159.06 42.8731 157.13 42.8535 155.219C42.8524 155.195 42.8547 155.168 42.8558 155.143ZM57.3861 158.815C57.4369 160.041 57.2006 161.262 56.6961 162.38C56.6578 162.469 56.6032 162.55 56.5351 162.619C56.5087 162.612 56.4835 162.6 56.4603 162.586C56.276 162.44 56.1437 162.238 56.0831 162.011C55.9144 161.418 55.8418 160.802 55.8681 160.186C55.8681 160.052 55.8151 159.925 55.7209 159.83C55.6266 159.736 55.4988 159.683 55.3655 159.683C55.2322 159.683 55.1044 159.736 55.0102 159.83C54.9159 159.925 54.863 160.052 54.863 160.186C54.8198 161.008 54.9495 161.831 55.2436 162.601C55.3942 162.973 55.6624 163.285 56.0072 163.491C56.199 163.601 56.4211 163.647 56.6409 163.622C56.8607 163.596 57.0667 163.501 57.2285 163.351C57.5015 163.052 57.7084 162.699 57.8357 162.316C57.9799 161.958 58.0893 161.588 58.1623 161.209C58.3004 160.418 58.3773 159.617 58.3923 158.814C58.4176 158.164 57.4125 158.165 57.3861 158.815ZM31.5088 100.51C31.7339 100.587 31.9537 100.679 32.1666 100.785C32.3197 100.86 32.4686 100.943 32.6128 101.034C32.6266 100.919 32.6496 100.811 32.668 100.7C33.8559 93.5881 43.6884 93.9952 45.9056 95.734C46.3555 96.1017 46.7396 96.543 47.0418 97.0392C47.2239 97.3321 47.3887 97.6355 47.5352 97.9477C47.8032 97.763 48.0446 97.5425 48.2528 97.2922C48.8505 96.5336 49.3245 95.6852 49.6569 94.7783C49.8616 94.3778 49.9091 93.9152 49.7899 93.4815C49.6707 93.0477 49.3936 92.6743 49.0129 92.4346C48.8186 92.3403 48.5529 92.3277 48.4379 92.1322C48.3705 91.9637 48.3241 91.7876 48.2999 91.6078C48.1894 91.1753 47.9682 90.779 47.6582 90.4578C47.3458 90.1298 46.9211 89.9319 46.469 89.9037C46.0169 89.8756 45.5709 90.0192 45.2202 90.306C44.935 90.5567 44.7349 91.0431 44.3255 91.111C44.1755 91.1332 44.0223 91.1087 43.8867 91.0408C43.7511 90.9729 43.6397 90.8649 43.5677 90.7315C43.3952 90.3623 43.4642 89.9265 43.2698 89.555C43.1676 89.3646 43.0193 89.2028 42.8385 89.0843C42.6578 88.9658 42.4502 88.8944 42.2348 88.8765C41.7667 88.8484 41.3003 88.9533 40.8892 89.1789C40.4782 89.4046 40.1393 89.7419 39.9118 90.1519C39.8228 90.3381 39.6964 90.5041 39.5405 90.6394C39.3846 90.7747 39.2025 90.8765 39.0056 90.9385C38.8123 90.9926 38.6063 90.9791 38.4217 90.9003C38.237 90.8214 38.0848 90.682 37.9902 90.5049C37.8033 90.1447 37.5714 89.8097 37.3002 89.5079C36.9742 89.2188 36.5589 89.0503 36.1237 89.0306C35.7225 89.0019 35.3223 89.0985 34.9784 89.3073C34.6345 89.516 34.364 89.8264 34.2044 90.1956C34.0583 90.5463 33.872 92.6324 33.1418 91.9401C32.829 91.6434 32.6243 91.2731 32.2218 91.0753C31.997 90.9716 31.7501 90.9245 31.5029 90.9384C31.2557 90.9522 31.0156 91.0265 30.8038 91.1547C29.801 91.7297 29.6872 93.0579 29.7079 94.0941C29.9012 96.3266 30.5121 98.5029 31.5088 100.51ZM171.16 106.626C171.924 106.629 172.681 106.477 173.384 106.178C173.583 106.621 173.895 107.004 174.289 107.287C174.684 107.569 175.146 107.743 175.629 107.788C176.704 107.952 177.802 107.883 178.849 107.588C177.437 106.608 176.389 105.188 175.869 103.549C175.836 103.441 175.81 103.334 175.782 103.226C175.467 103.353 175.129 103.413 174.79 103.403C174.297 103.387 173.821 103.221 173.425 102.926C173.03 102.632 172.734 102.223 172.578 101.755C172.483 101.402 172.473 101.032 172.549 100.674C172.626 100.317 172.786 99.9826 173.018 99.6995C173.249 99.4164 173.544 99.1926 173.88 99.0465C174.215 98.9005 174.58 98.8364 174.945 98.8597C175.279 98.8736 175.606 98.9566 175.906 99.1035C176.088 98.5657 176.331 98.0506 176.631 97.5682C176.878 97.6016 177.124 97.6372 177.372 97.6671C178.177 97.7649 178.999 97.8373 179.813 97.8971C180.602 97.9558 181.391 98.0029 182.179 98.0489C182.822 98.1475 183.479 98.0455 184.062 97.7568C184.519 97.3955 184.895 96.9427 185.166 96.4274C185.218 96.3538 185.511 95.9329 185.626 95.9674C185.741 96.0019 185.822 96.5424 185.869 96.6505C186.146 97.2865 186.775 97.4854 187.381 97.7051C188.075 97.9817 188.807 98.1504 189.552 98.2053C190.003 98.2422 190.457 98.163 190.869 97.9753C191.285 98.7061 191.574 99.5026 191.722 100.331C192.051 100.016 192.462 99.8001 192.908 99.7075C193.354 99.615 193.816 99.6495 194.244 99.8071C194.671 99.9647 195.045 100.239 195.324 100.599C195.603 100.959 195.775 101.39 195.821 101.843V102.012C195.773 102.628 195.486 103.202 195.021 103.61C194.557 104.018 193.951 104.229 193.333 104.197C193 104.182 192.673 104.1 192.372 103.955C192.071 103.81 191.802 103.606 191.582 103.355C191.081 105.1 189.977 106.61 188.468 107.618C188.527 107.681 188.583 107.746 188.647 107.806C189.203 108.337 189.896 108.704 190.648 108.865C191.465 109.036 192.505 108.828 192.78 108.041C192.817 107.879 192.872 107.722 192.945 107.572C193.046 107.446 193.183 107.353 193.337 107.304C193.492 107.256 193.657 107.254 193.813 107.298C194.121 107.394 194.424 107.505 194.721 107.631C195.369 107.768 196.045 107.673 196.63 107.363C197.215 107.053 197.672 106.547 197.923 105.934C198.387 104.686 198.432 103.321 198.051 102.045C197.425 99.482 196.2 97.1036 194.478 95.1047C192.756 93.1058 190.585 91.5433 188.142 90.5452C186.826 90.0454 185.439 89.7581 184.033 89.6942C178.881 89.4469 173.134 91.8274 171.482 97.0783C170.896 98.9436 171.152 100.998 170.242 102.771C169.815 103.605 169.152 104.473 169.408 105.374C169.542 105.734 169.78 106.045 170.092 106.268C170.405 106.491 170.777 106.616 171.16 106.626ZM196.995 211.537C196.968 211.485 196.926 211.433 196.898 211.387C196.796 211.219 196.695 211.05 196.597 210.879C196.402 210.552 196.182 210.24 195.939 209.946C195.193 208.973 194.237 208.182 193.142 207.63C192.167 207.115 191.056 206.915 189.962 207.057C188.868 207.2 187.845 207.679 187.035 208.427C186.276 209.32 185.62 210.296 185.08 211.337C185.042 211.403 185.019 211.478 185.014 211.554C185.009 211.631 185.021 211.708 185.05 211.779C185.079 211.85 185.124 211.914 185.181 211.965C185.238 212.016 185.306 212.054 185.38 212.075C186.41 212.256 187.449 212.38 188.493 212.447C191.222 212.65 193.963 212.655 196.692 212.462C196.78 212.459 196.864 212.433 196.938 212.386C197.011 212.339 197.07 212.273 197.11 212.196C197.177 212.11 197.21 212.003 197.203 211.895C197.195 211.787 197.148 211.685 197.07 211.61C197.048 211.582 197.023 211.558 196.995 211.537ZM181.525 206.749L181.51 206.724L181.499 206.709C181.455 206.647 181.395 206.598 181.325 206.569C181.255 206.54 181.178 206.531 181.103 206.543C177.699 206.768 174.345 207.479 171.142 208.652C169.911 209.017 168.833 209.773 168.07 210.805C168 210.898 167.952 211.006 167.932 211.121C167.911 211.235 167.919 211.353 167.953 211.465C167.987 211.576 168.048 211.678 168.129 211.761C168.21 211.844 168.31 211.907 168.421 211.944C169.225 212.167 170.056 212.278 170.89 212.276C173.486 212.51 176.1 212.468 178.687 212.15C179.189 212.098 179.68 211.966 180.141 211.759C180.465 211.579 180.751 211.338 180.981 211.047C181.212 210.757 181.383 210.424 181.484 210.067C181.78 209.041 181.816 207.956 181.588 206.913C181.577 206.855 181.555 206.8 181.525 206.749ZM184.588 156.129C184.581 155.999 184.526 155.877 184.432 155.788C184.338 155.699 184.214 155.649 184.084 155.649C183.955 155.649 183.831 155.699 183.737 155.788C183.643 155.877 183.587 155.999 183.581 156.129L183.558 160.743L183.502 171.823L183.435 185.179L183.377 196.728C183.367 198.601 183.288 200.491 183.349 202.363V202.442C183.345 202.538 183.37 202.632 183.423 202.712C183.475 202.792 183.552 202.853 183.641 202.886C183.753 202.931 183.876 202.939 183.993 202.908C184.098 202.885 184.192 202.826 184.259 202.741C184.325 202.656 184.359 202.55 184.355 202.442L184.378 197.828L184.435 186.748L184.501 173.392L184.56 161.843C184.569 159.968 184.65 158.079 184.589 156.208C184.586 156.181 184.588 156.155 184.588 156.129ZM198.884 131.598C198.838 131.551 198.782 131.514 198.721 131.488C198.661 131.463 198.595 131.45 198.529 131.45C198.463 131.45 198.397 131.463 198.337 131.488C198.276 131.514 198.22 131.551 198.174 131.598L198.094 131.699C198.07 131.742 198.052 131.789 198.041 131.837C198.032 131.902 198.019 131.965 198.001 132.028C197.948 131.017 197.896 130.007 197.86 128.995C197.836 128.35 196.825 128.347 196.853 128.995C196.949 131.555 197.093 134.112 197.288 136.665C197.336 137.306 198.343 137.312 198.294 136.665C198.21 135.572 198.141 134.48 198.076 133.386H198.083C198.114 133.384 198.144 133.38 198.175 133.375C198.214 133.368 198.253 133.356 198.29 133.34C198.347 133.317 198.399 133.283 198.442 133.239C198.596 133.08 198.724 132.898 198.821 132.7C198.877 132.585 198.924 132.466 198.961 132.344C198.997 132.215 199.021 132.084 199.035 131.951C199.035 131.885 199.021 131.82 198.996 131.759C198.97 131.698 198.932 131.644 198.884 131.598ZM168.831 131.716C168.907 131.766 168.994 131.795 169.084 131.8C169.175 131.805 169.265 131.785 169.345 131.743C169.425 131.702 169.493 131.639 169.54 131.562C169.588 131.486 169.615 131.397 169.617 131.307C169.626 127.828 170.393 124.393 171.866 121.241C171.923 121.121 171.933 120.985 171.893 120.858C171.854 120.732 171.768 120.625 171.653 120.559C171.601 120.519 171.541 120.492 171.477 120.479C171.413 120.466 171.346 120.468 171.283 120.485C171.22 120.502 171.161 120.533 171.112 120.576C171.062 120.619 171.024 120.672 170.998 120.733C169.44 124.043 168.626 127.654 168.612 131.313C168.609 131.393 168.628 131.473 168.667 131.544C168.705 131.615 168.762 131.675 168.831 131.716ZM186.43 152.005C186.438 151.939 186.431 151.872 186.41 151.809C186.389 151.746 186.354 151.688 186.308 151.641C186.262 151.593 186.205 151.556 186.143 151.533C186.081 151.51 186.014 151.502 185.948 151.508C181.503 151.763 177.043 151.515 172.654 150.768C172.194 150.691 171.734 150.603 171.274 150.515C171.112 150.484 170.949 150.458 170.786 150.426C170.549 150.377 170.315 150.326 170.079 150.273C169.7 145.543 169.639 140.775 169.546 136.032C169.536 135.551 169.527 135.069 169.519 134.586C169.514 134.478 169.475 134.375 169.408 134.291C169.341 134.207 169.249 134.146 169.145 134.117C169.041 134.088 168.931 134.092 168.83 134.129C168.729 134.166 168.642 134.234 168.582 134.323C168.534 134.402 168.51 134.493 168.513 134.586L168.523 135.161C168.588 139.018 168.688 142.876 168.868 146.73C168.927 148.016 168.995 149.304 169.098 150.589C169.098 150.621 169.098 150.655 169.105 150.687C169.108 150.796 169.145 150.902 169.211 150.989C169.277 151.077 169.369 151.14 169.474 151.172C170.034 151.307 170.6 151.426 171.167 151.539C171.627 151.631 172.092 151.716 172.562 151.793C175.145 152.21 177.752 152.466 180.367 152.561C182.226 152.639 184.088 152.624 185.946 152.514C186.077 152.508 186.2 152.452 186.29 152.357C186.381 152.262 186.431 152.136 186.43 152.005ZM169.098 162.596C169.392 161.827 169.522 161.004 169.479 160.181C169.479 160.048 169.426 159.92 169.332 159.826C169.237 159.732 169.11 159.679 168.976 159.679C168.843 159.679 168.715 159.732 168.621 159.826C168.527 159.92 168.474 160.048 168.474 160.181C168.5 160.797 168.427 161.413 168.259 162.006C168.197 162.233 168.065 162.435 167.882 162.581C167.86 162.596 167.836 162.608 167.811 162.616C167.741 162.547 167.684 162.466 167.646 162.375C167.142 161.257 166.906 160.036 166.956 158.81C166.95 158.681 166.894 158.559 166.8 158.47C166.707 158.381 166.582 158.331 166.453 158.331C166.323 158.331 166.199 158.381 166.105 158.47C166.011 158.559 165.956 158.681 165.95 158.81C165.965 159.614 166.042 160.414 166.18 161.206C166.253 161.584 166.362 161.955 166.506 162.312C166.633 162.696 166.84 163.049 167.113 163.347C167.275 163.498 167.481 163.593 167.701 163.618C167.921 163.643 168.143 163.598 168.335 163.487C168.68 163.282 168.948 162.969 169.098 162.596ZM28.9903 114.901C29.2785 115.33 29.5919 115.742 29.9287 116.134L30.0034 116.225C30.629 116.99 31.2995 117.717 32.0113 118.403C33.0481 119.405 34.1676 120.318 35.3578 121.133C35.7994 121.435 36.2905 121.873 36.8528 121.634C37.3427 121.426 37.7142 120.85 38.0833 120.484C39.0007 119.561 39.9884 118.711 41.0377 117.942C41.2217 117.806 41.5069 117.502 41.7357 117.57C42.0575 117.732 42.3568 117.935 42.6258 118.174L44.2968 119.324C44.843 119.741 45.4141 120.126 46.0068 120.474C46.2413 120.616 46.5213 120.663 46.7894 120.605C47.0574 120.547 47.293 120.389 47.4478 120.162C47.8882 119.565 48.2436 118.886 48.6323 118.254L48.8266 117.939L49.5764 116.719C49.6339 116.799 49.6914 116.879 49.7478 116.961C50.3616 117.902 50.8871 118.899 51.3175 119.937C52.0841 121.793 52.7073 123.705 53.1817 125.657C53.9255 128.698 54.4702 131.784 54.8124 134.896C55.3603 139.888 55.6237 144.906 55.6013 149.928V150.252C55.6008 150.291 55.6042 150.329 55.6116 150.367C54.4524 150.638 53.2832 150.854 52.1041 151.017C51.973 151.034 51.8431 151.054 51.7131 151.07C49.2346 151.386 46.7314 151.463 44.2381 151.3C43.4791 151.249 42.7201 151.185 41.9634 151.086C41.8725 151.067 41.7781 151.082 41.6971 151.127C41.6162 151.172 41.554 151.245 41.5218 151.332C41.4912 151.411 41.4787 151.495 41.4852 151.579C41.4918 151.664 41.5172 151.745 41.5596 151.818C41.6021 151.891 41.6604 151.954 41.7303 152.001C41.8002 152.049 41.8799 152.08 41.9634 152.092C45.2319 152.496 48.5379 152.491 51.8051 152.077L52.2168 152.021C53.5827 151.834 54.9381 151.577 56.2775 151.25C56.3538 151.231 56.4244 151.194 56.483 151.142C56.5416 151.089 56.5864 151.023 56.6134 150.949C56.6405 150.876 56.6489 150.796 56.6381 150.718C56.6272 150.64 56.5974 150.566 56.5512 150.503C56.5914 150.428 56.612 150.345 56.611 150.26C56.6349 145.554 56.4169 140.85 55.9578 136.167C55.6384 132.852 55.1099 129.561 54.3754 126.312C53.8997 124.191 53.2596 122.11 52.4606 120.089C52.0007 118.904 51.4329 117.764 50.7644 116.682C50.5714 116.359 50.3563 116.049 50.1204 115.755L50.1307 115.729C50.2184 115.523 50.2538 115.299 50.2337 115.076C50.2136 114.853 50.1388 114.638 50.0157 114.451C49.5948 113.761 49.1072 113.099 48.6541 112.426C48.2942 111.891 47.4225 112.395 47.7859 112.933L48.7967 114.435C48.9757 114.641 49.1276 114.869 49.2487 115.114C49.2487 115.126 49.2487 115.139 49.2567 115.152C49.2616 115.17 49.2655 115.188 49.2682 115.207C49.2646 115.324 49.2288 115.439 49.1647 115.537C49.1314 115.596 49.0946 115.652 49.0555 115.709C48.9738 115.824 48.8887 115.939 48.837 116.022L48.6863 116.266L46.9613 119.071C46.8601 119.235 46.7118 119.636 46.522 119.613C46.3323 119.59 46.0321 119.295 45.8815 119.191L44.2715 118.09L42.8006 117.081C42.6244 116.906 42.4148 116.768 42.1842 116.676C41.9537 116.583 41.707 116.538 41.4586 116.542C40.954 116.725 40.4946 117.014 40.1119 117.39C39.6427 117.747 39.1827 118.118 38.7319 118.505C38.3371 118.848 37.9537 119.202 37.5819 119.568C37.3853 119.76 37.1932 119.954 37.0069 120.152C36.8554 120.347 36.686 120.528 36.5009 120.691C36.4457 120.658 36.3859 120.623 36.3365 120.588C36.2193 120.51 36.1012 120.433 35.9823 120.358C35.7868 120.226 35.5924 120.09 35.4004 119.953C34.9404 119.619 34.4892 119.269 34.0468 118.902C33.4414 118.391 32.8607 117.851 32.3069 117.284C32.1332 117.108 31.9538 116.939 31.7848 116.757C31.3677 116.307 30.9663 115.842 30.5807 115.362L30.5727 115.352C30.3956 115.13 30.2277 114.906 30.0552 114.677C30.0046 114.609 29.9402 114.535 29.8804 114.458C29.8189 114.399 29.7734 114.325 29.7481 114.243C29.7228 114.161 29.7184 114.074 29.7355 113.99C29.8332 113.718 30.2127 113.432 30.4105 113.225C30.6083 113.018 30.836 112.79 31.0557 112.578C31.5318 112.118 32.0297 111.687 32.5438 111.272C33.0578 110.856 32.3333 110.158 31.8331 110.561C30.7953 111.35 29.8515 112.256 29.0202 113.26C28.8404 113.466 28.7321 113.724 28.7113 113.996C28.6906 114.269 28.7586 114.541 28.9052 114.771C28.9316 114.815 28.9627 114.857 28.9903 114.901ZM27.7552 159.675C28.0944 159.831 28.4744 159.875 28.8403 159.801C29.2061 159.727 29.539 159.538 29.7907 159.262C30.3369 158.521 29.9643 157.295 29.7838 156.483C29.7136 156.17 29.6308 155.862 29.54 155.556C29.7606 155.723 30.0176 155.836 30.2902 155.886C30.5628 155.935 30.8432 155.919 31.1086 155.84C32.2103 155.45 32.2586 154.046 31.9136 153.119C31.5864 152.333 31.0997 151.623 30.4841 151.035C29.9509 150.523 29.3385 150.101 28.6706 149.784C28.1578 149.54 27.6171 149.36 27.0606 149.248C26.3349 149.106 25.5851 149.15 24.8813 149.377C23.9408 149.693 23.1111 150.273 22.4916 151.048C21.4118 152.369 20.7914 154.005 20.7241 155.71C20.7127 156.095 20.7385 156.48 20.8011 156.86C20.9051 157.67 21.2026 158.443 21.6687 159.113C22.1347 159.783 22.7554 160.332 23.4783 160.711C24.3983 161.144 25.9025 161.432 26.6581 160.54C26.926 160.17 27.0391 159.71 26.9732 159.258C27.0622 159.325 27.1547 159.387 27.2503 159.444C27.4103 159.538 27.5795 159.615 27.7552 159.675ZM26.2728 156.679C25.9658 156.104 25.1228 156.61 25.4046 157.188C25.6163 157.626 25.7708 158.09 25.8646 158.568C25.9347 158.913 26.1233 159.664 25.8266 159.94C25.6639 160.032 25.4843 160.092 25.2984 160.115C25.1125 160.138 24.9238 160.124 24.7433 160.074C24.3004 159.999 23.8783 159.832 23.5048 159.582C23.0325 159.248 22.6352 158.818 22.3382 158.322C22.0412 157.825 21.851 157.272 21.7798 156.698C21.7176 156.306 21.6987 155.908 21.7234 155.512C21.8453 153.604 23.0206 151.142 24.9135 150.387C25.3106 150.228 25.735 150.15 26.1624 150.157C26.2391 150.157 26.3157 150.16 26.3924 150.167C26.8834 150.21 27.3656 150.324 27.8242 150.505C28.1386 150.626 28.4419 150.775 28.7304 150.949C29.7036 151.51 30.4736 152.365 30.9292 153.392C31.0867 153.814 31.3202 155.019 30.5175 154.919C30.1109 154.8 29.7607 154.539 29.5308 154.183C29.2383 153.799 28.8934 153.459 28.5061 153.172C28.4403 153.127 28.3638 153.099 28.2842 153.092C28.2045 153.085 28.1245 153.1 28.052 153.133C27.9794 153.167 27.9168 153.219 27.8705 153.284C27.8241 153.349 27.7954 153.425 27.7874 153.504C27.7679 153.589 27.7679 153.677 27.7874 153.762C27.7946 153.795 27.8054 153.828 27.8196 153.86C28.1676 154.6 28.4493 155.37 28.6614 156.16C28.8906 156.863 29.0206 157.596 29.0478 158.335C29.0282 159.04 28.2244 158.836 27.754 158.581C27.6922 158.547 27.6327 158.509 27.5758 158.466C27.0122 157.977 26.5674 157.366 26.2751 156.679H26.2728ZM23.9418 132.884C24.0373 132.976 24.1649 133.027 24.2977 133.027C24.4304 133.027 24.558 132.976 24.6536 132.884L24.9273 132.612L25.5771 131.968C25.6344 131.992 25.6968 132.002 25.7588 131.997L27.355 131.859C27.4875 131.855 27.614 131.803 27.7103 131.712C27.7806 131.641 27.8284 131.552 27.8478 131.454C27.8672 131.357 27.8573 131.256 27.8192 131.164C27.7812 131.072 27.7168 130.994 27.6342 130.939C27.5515 130.883 27.4543 130.854 27.355 130.854L26.6408 130.915L27.8081 129.765C27.8788 129.691 27.9261 129.597 27.9441 129.497C27.9621 129.396 27.95 129.292 27.9093 129.198C27.8855 129.143 27.8511 129.094 27.8081 129.053C27.7125 128.961 27.5852 128.91 27.4527 128.91C27.3202 128.91 27.1929 128.961 27.0974 129.053L25.0768 131.053L23.9418 132.176C23.8881 132.232 23.8477 132.3 23.8236 132.374C23.7996 132.448 23.7924 132.526 23.8026 132.603C23.8147 132.71 23.864 132.809 23.9418 132.884Z" fill="black"/>
<path id="Vector_12" d="M85.0588 208.71C85.0588 209.302 87.2796 209.87 91.2325 210.289C95.1855 210.708 100.547 210.943 106.137 210.943C111.728 210.943 117.089 210.708 121.042 210.289C124.995 209.87 127.216 209.302 127.216 208.71C127.216 208.118 124.995 207.55 121.042 207.131C117.089 206.712 111.728 206.477 106.137 206.477C100.547 206.477 95.1855 206.712 91.2325 207.131C87.2796 207.55 85.0588 208.118 85.0588 208.71Z" fill="#ACEAC7"/>
<path id="Vector_13" d="M212.825 210.868H203.923C203.79 210.868 203.662 210.921 203.568 211.016C203.474 211.11 203.421 211.238 203.421 211.371C203.421 211.504 203.474 211.632 203.568 211.726C203.662 211.821 203.79 211.874 203.923 211.874H212.825C212.959 211.874 213.087 211.821 213.181 211.726C213.275 211.632 213.328 211.504 213.328 211.371C213.328 211.238 213.275 211.11 213.181 211.016C213.087 210.921 212.959 210.868 212.825 210.868ZM219.331 213.949H212.484C212.355 213.955 212.233 214.011 212.143 214.105C212.054 214.198 212.004 214.323 212.004 214.452C212.004 214.582 212.054 214.706 212.143 214.8C212.233 214.894 212.355 214.949 212.484 214.956H219.331C219.46 214.949 219.582 214.894 219.672 214.8C219.761 214.706 219.811 214.582 219.811 214.452C219.811 214.323 219.761 214.198 219.672 214.105C219.582 214.011 219.46 213.955 219.331 213.949ZM19.7175 211.665L9.43532 212.585C8.79592 212.643 8.79017 213.649 9.43532 213.592L19.7175 212.672C20.3569 212.613 20.3626 211.607 19.7175 211.665ZM34.4248 216.72C31.0554 216.425 27.6609 216.632 24.352 217.333C23.7183 217.466 23.9863 218.435 24.6188 218.302C27.8411 217.627 31.1457 217.433 34.4248 217.727C35.0734 217.782 35.0688 216.775 34.4248 216.72ZM68.8777 211.553L64.7699 212.243C64.6417 212.279 64.533 212.364 64.4672 212.48C64.4013 212.596 64.3836 212.733 64.418 212.861C64.4574 212.987 64.5435 213.093 64.6586 213.157C64.7737 213.221 64.909 213.239 65.0367 213.206L69.1445 212.516C69.2728 212.48 69.3817 212.395 69.4476 212.279C69.5135 212.164 69.531 212.026 69.4964 211.898C69.4569 211.772 69.3708 211.666 69.2557 211.602C69.1406 211.538 69.0054 211.52 68.8777 211.553ZM80.1684 222.47C76.8386 223.133 73.4382 223.372 70.0484 223.181C69.4009 223.145 69.4032 224.151 70.0484 224.187C73.5302 224.378 77.0223 224.127 80.4409 223.439C81.07 223.313 80.8009 222.342 80.1684 222.47Z" fill="#ACEAC7"/>
<path id="Vector_14" d="M61.8593 34.0618L55.2284 29.8068C54.6821 29.456 54.1773 30.3266 54.7212 30.675L61.351 34.93C61.8973 35.2808 62.4021 34.4102 61.8593 34.0618ZM64.8918 14.8418C64.4399 14.3818 63.7292 15.0879 64.18 15.5525C66.8795 18.3289 69.2943 21.3685 71.3882 24.626C71.7332 25.1688 72.6083 24.6651 72.2576 24.1177C70.1178 20.7879 67.6502 17.6805 64.8918 14.8418ZM152.037 11.4482C149.338 16.9536 146.384 22.3226 143.175 27.5551C142.83 28.1082 143.705 28.6142 144.043 28.0634C147.248 22.837 150.202 17.4692 152.905 11.9599C153.189 11.3769 152.322 10.8674 152.037 11.4482ZM160.441 22.7044L151.824 33.2729C151.419 33.7708 152.126 34.4861 152.536 33.9847C155.407 30.4581 158.279 26.9352 161.153 23.4162C161.557 22.9183 160.85 22.203 160.441 22.7044ZM127.786 5.99833C126.398 8.51621 125.371 11.2173 124.737 14.0219C124.594 14.6521 125.564 14.9212 125.706 14.2887C126.318 11.5683 127.311 8.94795 128.656 6.50548C128.968 5.93853 128.099 5.43023 127.786 5.99833ZM53.2343 53.6072C51.1009 52.4104 48.8809 51.3748 46.5931 50.5091C45.9881 50.2791 45.7259 51.2508 46.3262 51.4785C48.5311 52.3168 50.6703 53.3185 52.726 54.4754C52.8406 54.5349 52.9737 54.5481 53.0978 54.5123C53.2219 54.4764 53.3275 54.3943 53.3927 54.2828C53.458 54.1714 53.4779 54.0391 53.4484 53.9134C53.4189 53.7876 53.3423 53.678 53.2343 53.6072Z" fill="#FFD35C"/>
<path id="Vector_15" d="M116.214 164.425C114.719 163.252 113.008 162.385 111.178 161.876C109.347 161.366 107.434 161.223 105.549 161.455C105.41 161.471 105.283 161.54 105.194 161.647C105.104 161.754 105.06 161.891 105.069 162.03C105.065 162.093 105.075 162.155 105.098 162.213C105.122 162.27 105.158 162.322 105.204 162.364C105.25 162.406 105.305 162.437 105.365 162.455C105.424 162.472 105.487 162.476 105.549 162.466C108.781 162.066 112.051 162.822 114.781 164.6C116.867 166.039 118.345 168.202 118.928 170.668C119.439 173.122 119.307 175.667 118.543 178.055C117.779 180.442 116.41 182.592 114.569 184.293C112.451 186.275 109.665 187.39 106.764 187.418C106.635 187.424 106.513 187.48 106.424 187.573C106.334 187.667 106.285 187.792 106.285 187.921C106.285 188.05 106.334 188.175 106.424 188.269C106.513 188.362 106.635 188.418 106.764 188.424C109.565 188.402 112.277 187.443 114.469 185.7C116.581 183.995 118.205 181.762 119.174 179.226C121.143 174.225 120.541 168.015 116.214 164.425ZM133.596 112.729C131.294 113.408 129.16 114.563 127.332 116.119C125.505 117.674 124.024 119.597 122.986 121.761C121.864 124.317 121.138 127.029 120.836 129.804C120.401 132.897 120.188 136.017 120.201 139.141C120.201 142.735 120.411 146.324 120.642 149.909C120.684 150.551 121.69 150.556 121.649 149.909C121.091 143.817 121.077 137.687 121.608 131.592C121.841 128.766 122.442 125.983 123.394 123.312C124.255 121.152 125.559 119.197 127.22 117.57C129.077 115.746 131.36 114.415 133.863 113.699C133.987 113.66 134.091 113.574 134.153 113.46C134.215 113.345 134.23 113.211 134.196 113.086C134.161 112.96 134.08 112.853 133.968 112.787C133.856 112.72 133.723 112.699 133.596 112.729ZM152.852 63.7906C151.842 57.5084 149.616 51.4838 146.297 46.0553C143.267 40.9727 139.226 36.5659 134.425 33.1074C128.667 29.1525 122.113 26.504 115.224 25.3472C111.73 24.6693 108.159 24.4693 104.611 24.7527L104.454 24.7688C103.819 24.8481 103.811 25.8544 104.454 25.775C105.224 25.6905 105.999 25.6479 106.773 25.6474C108.836 25.6221 110.899 25.7439 112.944 26.0119C119.693 26.8898 126.183 29.176 131.992 32.7222C136.892 35.798 141.072 39.8923 144.25 44.727C147.703 49.8512 150.143 55.5897 151.437 61.632C152.809 67.9076 152.73 74.4135 151.207 80.6542C151.007 81.4454 150.783 82.23 150.536 83.0082C150.34 83.6258 151.311 83.8914 151.506 83.275C153.458 76.9721 153.919 70.3019 152.852 63.7906ZM178.724 100.42C178.58 100.42 178.439 100.463 178.32 100.542C178.2 100.622 178.106 100.736 178.051 100.869C177.996 101.002 177.981 101.148 178.009 101.29C178.037 101.431 178.106 101.561 178.208 101.663C178.31 101.765 178.44 101.834 178.581 101.862C178.722 101.89 178.868 101.876 179.002 101.821C179.135 101.766 179.248 101.673 179.328 101.553C179.408 101.433 179.451 101.292 179.451 101.148C179.451 101.053 179.433 100.958 179.396 100.87C179.36 100.782 179.306 100.701 179.239 100.634C179.171 100.566 179.091 100.512 179.003 100.476C178.915 100.439 178.82 100.42 178.724 100.42ZM188.373 100.42C188.229 100.42 188.088 100.463 187.968 100.542C187.848 100.622 187.755 100.736 187.699 100.869C187.644 101.002 187.63 101.148 187.658 101.29C187.686 101.431 187.755 101.561 187.857 101.663C187.958 101.765 188.088 101.834 188.229 101.862C188.37 101.89 188.517 101.876 188.65 101.821C188.783 101.766 188.897 101.673 188.977 101.553C189.057 101.433 189.1 101.292 189.1 101.148C189.1 101.053 189.081 100.958 189.045 100.87C189.008 100.782 188.955 100.701 188.887 100.634C188.82 100.566 188.74 100.512 188.651 100.476C188.563 100.439 188.468 100.42 188.373 100.42ZM178.605 99.2105C178.682 99.135 178.764 99.0636 178.849 98.9967C178.91 98.9518 178.964 98.9081 179.034 98.8679C179.145 98.7999 179.227 98.6929 179.264 98.5677C179.285 98.5026 179.288 98.4332 179.273 98.3665C179.27 98.3002 179.249 98.2359 179.213 98.1802C179.146 98.0674 179.038 97.9849 178.912 97.9502L178.778 97.9318C178.689 97.9313 178.601 97.9552 178.524 98.0008C178.394 98.0838 178.269 98.174 178.149 98.271C178.06 98.3428 177.974 98.4195 177.893 98.501C177.845 98.5453 177.809 98.6011 177.788 98.6632C177.76 98.7239 177.745 98.79 177.745 98.8569C177.745 98.9239 177.76 98.99 177.788 99.0507C177.809 99.1128 177.845 99.1686 177.893 99.2129C177.987 99.3067 178.115 99.3596 178.248 99.3601C178.382 99.3572 178.509 99.3038 178.605 99.2105ZM188.018 98.938L188.028 98.9461C188.125 99.0362 188.251 99.0885 188.383 99.0933C188.451 99.0962 188.518 99.0815 188.578 99.0507C188.639 99.0305 188.695 98.9944 188.739 98.9461L188.818 98.8449C188.862 98.7675 188.886 98.6799 188.887 98.5907L188.868 98.4573C188.846 98.3732 188.801 98.2966 188.739 98.2354C188.564 98.0792 188.367 97.9501 188.154 97.8524C188.099 97.8164 188.034 97.7958 187.968 97.7926C187.903 97.7808 187.835 97.7836 187.771 97.8009C187.707 97.8182 187.647 97.8495 187.597 97.8927C187.542 97.9273 187.497 97.9757 187.467 98.033L187.416 98.1537C187.392 98.241 187.392 98.3332 187.416 98.4205L187.467 98.5413C187.511 98.6157 187.573 98.6778 187.647 98.7218C187.778 98.7798 187.903 98.8524 188.018 98.938ZM186.58 102.903C186.229 103.324 185.793 103.665 185.301 103.905C184.809 104.145 184.272 104.278 183.725 104.296C183.106 104.318 182.488 104.227 181.902 104.027C181.657 103.97 181.426 103.864 181.224 103.715C181.021 103.565 180.852 103.376 180.725 103.159C180.445 102.575 179.575 103.085 179.857 103.666C180.472 104.943 182.325 105.326 183.604 105.306C184.303 105.304 184.995 105.152 185.631 104.86C186.267 104.569 186.833 104.144 187.291 103.615C187.701 103.121 186.993 102.404 186.58 102.903ZM212.753 117.938C212.685 117.826 212.577 117.744 212.452 117.708C212.387 117.691 212.319 117.686 212.253 117.695C212.186 117.703 212.122 117.725 212.064 117.759C211.951 117.825 211.868 117.933 211.834 118.059C211.801 118.216 211.754 118.37 211.695 118.519C211.603 118.728 211.487 118.925 211.35 119.107L211.396 119.047C211.309 119.141 211.259 119.264 211.256 119.392C211.256 119.525 211.308 119.653 211.403 119.747C211.497 119.842 211.625 119.894 211.758 119.894C211.824 119.895 211.89 119.883 211.951 119.858C212.012 119.832 212.067 119.795 212.113 119.747C212.283 119.541 212.428 119.316 212.545 119.077C212.66 118.836 212.748 118.582 212.806 118.321C212.836 118.191 212.818 118.055 212.753 117.938ZM183.883 120.376C183.94 120.41 184.004 120.432 184.069 120.441C184.135 120.45 184.202 120.446 184.266 120.429C184.33 120.412 184.39 120.383 184.443 120.343C184.495 120.303 184.54 120.253 184.573 120.196C184.633 120.076 184.651 119.939 184.624 119.808C184.64 119.923 184.624 119.796 184.624 119.769L184.607 119.618C184.575 119.351 184.554 119.083 184.543 118.815C184.528 118.452 184.528 118.089 184.543 117.727C184.542 117.594 184.489 117.466 184.394 117.372C184.3 117.278 184.173 117.225 184.04 117.224C183.907 117.227 183.781 117.281 183.688 117.375C183.594 117.468 183.54 117.594 183.537 117.727C183.507 118.512 183.547 119.298 183.658 120.076C183.691 120.202 183.772 120.309 183.883 120.376ZM183.741 126.717C183.868 126.751 184.004 126.734 184.12 126.67C184.235 126.605 184.321 126.499 184.359 126.372C184.548 125.571 184.602 124.744 184.521 123.924C184.519 123.792 184.465 123.665 184.371 123.572C184.278 123.478 184.151 123.424 184.019 123.42C183.886 123.422 183.759 123.475 183.664 123.57C183.57 123.664 183.517 123.791 183.515 123.924C183.555 124.303 183.564 124.685 183.542 125.065C183.542 125.153 183.53 125.241 183.522 125.328L183.505 125.481V125.543C183.475 125.731 183.439 125.919 183.398 126.104C183.366 126.231 183.383 126.365 183.447 126.479C183.511 126.593 183.616 126.678 183.741 126.717ZM183.925 129.061C183.798 129.1 183.691 129.185 183.626 129.3C183.561 129.416 183.542 129.551 183.574 129.68C183.587 129.744 183.597 129.81 183.607 129.875C183.646 130.202 183.646 130.531 183.607 130.857C183.595 130.934 183.583 131.01 183.567 131.087C183.531 131.216 183.548 131.353 183.614 131.469C183.68 131.585 183.789 131.671 183.918 131.706C184.046 131.742 184.184 131.725 184.3 131.659C184.416 131.593 184.501 131.484 184.536 131.355C184.671 130.715 184.671 130.053 184.536 129.413C184.5 129.286 184.416 129.178 184.302 129.113C184.188 129.047 184.052 129.029 183.925 129.061ZM37.7252 99.72C37.8758 99.6081 38.0381 99.5128 38.2093 99.436C38.3226 99.3701 38.4052 99.2623 38.4393 99.1358C38.4749 99.008 38.4586 98.8714 38.394 98.7556C38.3294 98.6397 38.2217 98.554 38.0943 98.5171L37.9609 98.4987C37.8717 98.4994 37.7841 98.5231 37.7068 98.5677C37.5152 98.6524 37.3345 98.7597 37.1686 98.8874C36.9699 99.0344 36.7899 99.2051 36.6327 99.3957C36.5846 99.44 36.5485 99.4958 36.528 99.5579C36.4965 99.6176 36.4818 99.6848 36.4855 99.7522C36.4855 99.8855 36.5384 100.013 36.6327 100.108C36.7269 100.202 36.8547 100.255 36.988 100.255C37.0541 100.255 37.1197 100.243 37.1808 100.217C37.2418 100.192 37.2971 100.155 37.3434 100.108C37.4565 99.9652 37.5845 99.8353 37.7252 99.72ZM46.9999 98.7046C46.9354 98.6125 46.8643 98.5252 46.7872 98.4435C46.7078 98.3664 46.6229 98.2953 46.533 98.2308C46.3826 98.1221 46.2161 98.0375 46.0397 97.9801C45.9751 97.9587 45.9059 97.9555 45.8396 97.9709C45.7729 97.974 45.7083 97.9946 45.6521 98.0307C45.5949 98.0606 45.5465 98.105 45.5118 98.1595C45.4675 98.2079 45.4362 98.2669 45.421 98.3308C45.3859 98.4616 45.4041 98.601 45.4716 98.7184L45.5509 98.8207C45.6116 98.8813 45.6869 98.9252 45.7694 98.9484C45.838 98.9812 45.9038 99.0197 45.9661 99.0634C46.0439 99.1262 46.1148 99.1971 46.1777 99.2749L46.1386 99.2232C46.1677 99.2766 46.2091 99.3223 46.2593 99.3566C46.3082 99.4002 46.367 99.431 46.4307 99.4463C46.4958 99.4671 46.5652 99.4703 46.6319 99.4555C46.6982 99.4524 46.7625 99.4317 46.8182 99.3957C46.931 99.3288 47.0134 99.2208 47.0482 99.0944C47.0674 99.0296 47.073 98.9615 47.0647 98.8944C47.0563 98.8274 47.0343 98.7627 46.9999 98.7046ZM38.4497 101.247C38.4303 101.222 38.4099 101.197 38.3887 101.174C38.3488 101.128 38.3004 101.091 38.2461 101.064C38.2023 101.041 38.156 101.022 38.1081 101.008C38.0335 100.985 37.9544 100.982 37.8781 100.998C37.8039 101.003 37.7318 101.025 37.6677 101.063C37.6577 101.068 37.6481 101.074 37.6389 101.08C37.5522 101.135 37.4794 101.208 37.4262 101.296C37.3886 101.358 37.3629 101.426 37.3503 101.498C37.3118 101.577 37.2903 101.662 37.287 101.75C37.2858 101.807 37.2931 101.865 37.3089 101.92V101.931C37.3227 101.969 37.3445 102.018 37.3606 102.056C37.3649 102.064 37.3699 102.073 37.3756 102.081C37.4349 102.178 37.519 102.257 37.6194 102.311C37.7072 102.359 37.8054 102.386 37.9057 102.388C37.9673 102.391 38.029 102.383 38.0874 102.363C38.1442 102.346 38.1984 102.321 38.2484 102.289C38.3334 102.234 38.4056 102.162 38.46 102.076C38.4714 102.062 38.4807 102.046 38.4876 102.029L38.5049 101.989C38.5368 101.938 38.5623 101.884 38.5808 101.827C38.6012 101.77 38.6098 101.709 38.6061 101.649C38.6051 101.544 38.577 101.44 38.5244 101.35C38.5036 101.313 38.4785 101.278 38.4497 101.247ZM46.142 101.255C46.111 101.148 46.0546 101.049 45.9776 100.968C45.939 100.928 45.8957 100.894 45.8488 100.865L45.8304 100.855C45.8108 100.845 45.774 100.831 45.766 100.827C45.7579 100.824 45.7188 100.806 45.6958 100.799H45.674C45.6279 100.79 45.5815 100.784 45.5348 100.78H45.5268C45.4694 100.778 45.4122 100.787 45.3577 100.804C45.3359 100.811 45.2979 100.83 45.2922 100.832C45.2864 100.834 45.2462 100.849 45.2255 100.86L45.2117 100.869C45.175 100.894 45.1396 100.921 45.1059 100.951H45.0978L45.0817 100.967C45.0543 101.001 45.0278 101.036 45.0024 101.071L44.9932 101.083L44.984 101.1C44.9647 101.141 44.947 101.183 44.9311 101.225V101.246C44.9217 101.292 44.9152 101.339 44.9115 101.386C44.9083 101.444 44.9145 101.501 44.9299 101.557C44.9299 101.581 44.9299 101.604 44.9403 101.627V101.653C44.9597 101.71 44.9827 101.766 45.0093 101.82C45.0173 101.839 45.0277 101.858 45.0369 101.876L45.1151 101.979C45.1481 102.013 45.1871 102.04 45.2301 102.06L45.283 102.099C45.2953 102.108 45.3084 102.117 45.3221 102.124C45.3735 102.15 45.427 102.172 45.4819 102.19L45.6153 102.207C45.6824 102.211 45.7491 102.196 45.8085 102.165C45.8517 102.153 45.8913 102.13 45.9235 102.099C45.978 102.065 46.0224 102.016 46.0523 101.959C46.0859 101.894 46.1118 101.825 46.1294 101.754C46.1409 101.697 46.1489 101.638 46.1535 101.58V101.566C46.1605 101.528 46.1655 101.489 46.1685 101.451C46.169 101.444 46.169 101.438 46.1685 101.431C46.1685 101.402 46.1604 101.37 46.157 101.345C46.1549 101.315 46.1499 101.285 46.142 101.255ZM44.7965 104.202C44.4893 104.556 44.1076 104.837 43.6787 105.026C43.2499 105.216 42.7846 105.308 42.316 105.296C41.4132 105.279 40.1091 105.181 39.5755 104.334C39.2305 103.786 38.3611 104.291 38.7061 104.842C39.1275 105.349 39.6654 105.746 40.2739 106C40.8823 106.253 41.5432 106.356 42.1998 106.298C42.819 106.328 43.437 106.219 44.009 105.981C44.5811 105.742 45.0928 105.379 45.5072 104.918C45.935 104.43 45.2266 103.716 44.7965 104.202ZM41.6214 121.9C41.754 121.898 41.8806 121.844 41.9744 121.751C42.0682 121.657 42.1218 121.53 42.1239 121.398V119.278C42.1239 119.145 42.071 119.017 41.9767 118.923C41.8825 118.828 41.7547 118.775 41.6214 118.775C41.4881 118.775 41.3603 118.828 41.266 118.923C41.1718 119.017 41.1188 119.145 41.1188 119.278V121.398C41.12 121.53 41.1734 121.658 41.2673 121.752C41.3613 121.846 41.4885 121.899 41.6214 121.9ZM41.8249 124.043C41.7385 123.992 41.6391 123.969 41.5392 123.975C41.4394 123.981 41.3438 124.017 41.2645 124.078C41.1851 124.139 41.1258 124.222 41.0939 124.317C41.062 124.412 41.0591 124.514 41.0855 124.611C41.0947 124.655 41.1016 124.703 41.1085 124.747C41.1395 125.019 41.1395 125.293 41.1085 125.564C41.0946 125.661 41.0765 125.758 41.0544 125.854C41.0189 125.982 41.0359 126.12 41.1017 126.236C41.1674 126.352 41.2766 126.437 41.4052 126.472C41.5337 126.508 41.6711 126.491 41.7872 126.425C41.9032 126.359 41.9883 126.25 42.0239 126.122C42.1631 125.538 42.1733 124.931 42.0538 124.343C42.0185 124.217 41.9367 124.11 41.8249 124.043ZM41.2499 129.293C41.1228 129.331 41.0152 129.417 40.9496 129.532C40.884 129.647 40.8655 129.784 40.898 129.912C40.9371 130.086 40.9693 130.257 40.9958 130.438V130.466L41.0096 130.589C41.0176 130.678 41.0257 130.767 41.0314 130.855C41.0531 131.204 41.0489 131.554 41.0188 131.903C41.0191 132.036 41.0721 132.164 41.1662 132.258C41.2604 132.353 41.388 132.406 41.5213 132.406C41.6538 132.403 41.7799 132.349 41.8735 132.255C41.9671 132.161 42.021 132.035 42.0239 131.903C42.0851 131.146 42.0316 130.385 41.8652 129.644C41.8289 129.517 41.7442 129.409 41.6291 129.343C41.5141 129.278 41.378 129.26 41.2499 129.293ZM59.0841 153.002C58.9515 153.004 58.8249 153.057 58.7311 153.151C58.6373 153.245 58.5836 153.372 58.5816 153.504V154.76C58.5816 154.893 58.6345 155.021 58.7288 155.116C58.823 155.21 58.9508 155.263 59.0841 155.263C59.2174 155.263 59.3452 155.21 59.4395 155.116C59.5337 155.021 59.5867 154.893 59.5867 154.76V153.504C59.5855 153.371 59.5321 153.244 59.4381 153.15C59.3442 153.056 59.217 153.003 59.0841 153.002ZM19.462 152.105C19.4318 152.047 19.3875 151.999 19.3332 151.963C19.2844 151.92 19.2255 151.889 19.1619 151.874C19.0311 151.839 18.8918 151.857 18.7743 151.924C18.6613 151.991 18.5787 152.099 18.5443 152.226C18.5255 152.29 18.5203 152.358 18.529 152.425C18.5377 152.491 18.5602 152.556 18.5949 152.613L19.3735 153.655C19.4041 153.712 19.4488 153.761 19.5034 153.796C19.5521 153.84 19.611 153.871 19.6748 153.886C19.7385 153.904 19.8051 153.909 19.8707 153.9C19.9363 153.892 19.9997 153.871 20.0572 153.839C20.1146 153.806 20.1651 153.762 20.2057 153.71C20.2462 153.658 20.276 153.598 20.2935 153.534C20.3119 153.47 20.3167 153.402 20.3078 153.335C20.2989 153.268 20.2764 153.204 20.2417 153.147L19.462 152.105Z" fill="black"/>
</g>
</svg>
